<?xml version="1.0" standalone="no"?>
<!DOCTYPE svg PUBLIC "-//W3C//DTD SVG 20010904//EN"
 "http://www.w3.org/TR/2001/REC-SVG-20010904/DTD/svg10.dtd">
<svg version="1.0" xmlns="http://www.w3.org/2000/svg"
 width="640.000000pt" height="640.000000pt" viewBox="0 0 640.000000 640.000000"
 preserveAspectRatio="xMidYMid meet">
<metadata>
Created by potrace 1.11, written by Peter Selinger 2001-2013
</metadata>
<g transform="translate(0.000000,640.000000) scale(0.100000,-0.100000)"
fill="#000000" stroke="none">
<path d="M2345 5175 c-24 -23 -25 -30 -25 -138 0 -99 3 -116 20 -134 10 -12
29 -24 40 -28 20 -6 20 -13 18 -143 l-3 -137 -77 -3 c-68 -2 -79 -6 -96 -27
l-19 -25 -759 -2 -759 -3 -41 -27 c-50 -32 -78 -69 -93 -123 -15 -55 -16
-2973 0 -3028 13 -48 71 -113 117 -133 29 -12 126 -14 573 -14 l538 0 40 58
c22 31 61 85 86 120 25 34 45 67 45 71 0 5 -15 14 -32 21 -18 6 -109 38 -202
71 -93 32 -171 61 -173 63 -2 1 56 54 128 115 l131 113 162 -11 c89 -6 182
-11 206 -11 l45 1 105 142 c265 360 537 721 754 1001 34 44 55 80 50 85 -5 4
-475 182 -1044 395 -569 213 -1039 391 -1043 396 -5 4 60 49 145 100 l153 93
275 -37 c151 -20 529 -70 840 -111 518 -70 834 -111 1015 -135 39 -5 106 -14
150 -20 l79 -12 41 44 c22 24 104 114 183 200 175 191 398 409 514 503 l87 70
-161 3 c-157 2 -161 3 -180 27 -17 21 -28 25 -96 27 l-77 3 -3 138 c-2 119 -1
137 13 137 9 0 27 11 40 25 24 23 25 30 25 140 0 110 -1 117 -25 140 -23 24
-29 25 -157 25 -116 0 -137 -3 -163 -20 -29 -19 -48 -20 -536 -20 -491 0 -507
1 -532 20 -22 18 -40 20 -162 20 -131 0 -137 -1 -160 -25z m1399 -287 l35 -23
1 -137 0 -138 -75 0 c-68 0 -76 -2 -91 -25 l-16 -25 -395 0 -395 0 -19 25
c-17 21 -29 25 -92 27 l-72 3 -2 135 -3 135 33 22 c32 21 37 21 544 22 l512 1
35 -22z"/>
<path d="M5680 4521 c0 -4 21 -14 48 -24 47 -17 47 -17 22 2 -25 20 -70 34
-70 22z"/>
<path d="M5205 4500 l-400 -6 417 -1 c230 -1 423 -5 429 -9 7 -4 9 -3 5 4 -3
5 0 13 6 15 7 3 -3 5 -22 4 -19 -1 -215 -4 -435 -7z"/>
<path d="M5688 4488 c5 -5 16 -8 23 -6 8 3 3 7 -10 11 -17 4 -21 3 -13 -5z"/>
<path d="M4776 4440 c-20 -50 -20 -47 4 -53 16 -4 20 0 19 21 -1 17 -3 21 -6
10 -2 -10 -9 -18 -14 -18 -5 0 -2 16 6 37 8 20 14 38 11 40 -2 2 -11 -14 -20
-37z"/>
<path d="M5780 4471 c0 -7 11 -27 25 -45 13 -18 26 -42 28 -54 2 -12 7 -25 11
-29 5 -5 5 8 1 27 -7 35 -65 125 -65 101z"/>
<path d="M5770 4421 c0 -5 7 -11 14 -14 10 -4 13 -1 9 9 -6 15 -23 19 -23 5z"/>
<path d="M4740 4359 c-16 -38 -83 -155 -100 -174 -14 -17 -13 -17 8 -6 12 6
22 17 22 24 0 8 3 7 9 -2 5 -8 7 -21 5 -30 -3 -9 1 -5 8 7 8 16 9 29 2 40 -8
11 -5 27 10 56 12 23 24 43 27 46 12 10 30 52 25 57 -3 3 -10 -5 -16 -18z"/>
<path d="M4762 4339 c-7 -11 -8 -19 -2 -19 5 0 10 5 10 11 0 5 5 7 10 4 6 -3
10 -2 10 4 0 19 -16 19 -28 0z"/>
<path d="M5845 2880 c0 -795 1 -1120 2 -723 2 398 2 1048 0 1445 -1 398 -2 73
-2 -722z"/>
<path d="M4747 4295 c-4 -8 -2 -17 3 -20 6 -4 10 3 10 14 0 25 -6 27 -13 6z"/>
<path d="M4713 4245 c0 -8 4 -12 9 -9 5 3 6 10 3 15 -9 13 -12 11 -12 -6z"/>
<path d="M4711 4174 c0 -11 3 -14 6 -6 3 7 2 16 -1 19 -3 4 -6 -2 -5 -13z"/>
<path d="M4602 4133 c-31 -45 -31 -49 -11 -49 12 0 18 5 14 14 -3 7 2 23 11
35 15 22 16 21 9 -10 -3 -17 -3 -33 2 -36 4 -3 9 13 10 34 3 46 -8 50 -35 12z"/>
<path d="M4510 4003 c-24 -32 -55 -73 -68 -90 -13 -18 -20 -33 -16 -33 5 0 20
18 34 40 14 22 28 40 33 40 4 0 12 11 17 25 5 14 14 25 19 25 5 0 4 -13 -2
-30 -6 -16 -15 -30 -19 -30 -4 0 -8 -4 -8 -10 0 -5 7 -10 15 -10 13 0 33 61
27 84 -2 4 3 14 9 22 7 8 10 17 7 20 -3 2 -25 -21 -48 -53z"/>
<path d="M4600 3959 c0 -5 5 -7 10 -4 6 3 10 8 10 11 0 2 -4 4 -10 4 -5 0 -10
-5 -10 -11z"/>
<path d="M4450 3876 c-12 -34 -12 -36 0 -36 6 0 9 3 8 8 0 4 2 15 7 25 4 10 5
21 2 24 -4 3 -11 -6 -17 -21z"/>
<path d="M4410 3856 c0 -9 5 -16 10 -16 6 0 10 4 10 9 0 6 -4 13 -10 16 -5 3
-10 -1 -10 -9z"/>
<path d="M4357 3807 c-9 -13 -23 -32 -32 -41 -21 -21 -7 -21 17 1 10 9 18 12
18 7 0 -5 8 -10 18 -10 13 0 17 9 19 36 1 28 0 31 -7 14 -9 -23 -30 -41 -30
-27 0 5 5 14 12 21 6 6 9 14 6 17 -3 3 -12 -5 -21 -18z"/>
<path d="M4282 3711 c-20 -27 -20 -29 -2 -24 27 7 46 31 34 43 -7 7 -18 0 -32
-19z"/>
<path d="M4231 3655 c-1 -9 -29 -42 -101 -121 -18 -19 -18 -23 -3 -44 13 -19
13 -24 2 -31 -22 -14 -33 -10 -19 6 10 12 10 19 2 27 -9 9 -12 8 -12 -5 0 -9
-3 -16 -8 -14 -4 1 -18 -8 -31 -20 -20 -18 -22 -26 -13 -50 6 -17 11 -21 11
-10 1 9 6 17 11 17 6 0 10 4 10 10 0 5 -7 7 -15 4 -21 -8 -19 2 4 25 15 15 21
17 25 6 3 -9 17 -13 35 -12 30 2 30 3 27 47 -3 52 11 91 25 69 8 -12 10 -12
18 1 14 21 25 6 13 -17 -8 -15 -7 -19 7 -19 13 0 18 8 18 28 0 15 -4 25 -8 22
-4 -2 -13 5 -19 16 -12 22 -1 27 18 8 8 -8 10 -4 6 18 -3 21 -2 25 5 14 8 -12
13 -12 23 -2 9 9 9 12 -4 12 -9 0 -19 6 -21 13 -3 6 -6 8 -6 2z m-31 -70 c0
-8 -4 -15 -10 -15 -5 0 -7 7 -4 15 4 8 8 15 10 15 2 0 4 -7 4 -15z m-53 -76
c2 -16 -1 -19 -9 -11 -5 5 -7 15 -4 21 10 15 12 14 13 -10z"/>
<path d="M4273 3560 c-13 -5 -23 -11 -23 -14 0 -7 40 6 46 15 6 10 6 10 -23
-1z"/>
<path d="M4170 3530 c0 -5 5 -10 11 -10 5 0 7 5 4 10 -3 6 -8 10 -11 10 -2 0
-4 -4 -4 -10z"/>
<path d="M4091 3374 c0 -11 3 -14 6 -6 3 7 2 16 -1 19 -3 4 -6 -2 -5 -13z"/>
<path d="M4066 3365 c-3 -8 -3 -21 -1 -27 2 -7 9 -33 15 -58 10 -37 14 -41 22
-26 5 9 7 20 4 23 -3 4 -6 0 -7 -8 0 -8 -6 8 -14 35 -7 28 -11 56 -8 63 3 7 3
13 0 13 -3 0 -7 -7 -11 -15z"/>
<path d="M4142 3260 c7 -10 14 -18 15 -16 6 6 -9 36 -18 36 -5 0 -4 -9 3 -20z"/>
<path d="M4126 3210 c6 -53 21 -73 28 -39 7 34 4 59 -6 59 -6 0 -6 -14 -3 -32
10 -46 -2 -31 -15 18 l-10 39 6 -45z"/>
<path d="M4105 3195 c3 -16 12 -52 20 -80 20 -71 83 -304 91 -339 7 -28 8 -28
15 -8 5 13 3 32 -7 51 -15 30 -29 76 -64 211 -24 91 -62 207 -55 165z"/>
<path d="M4151 3114 c0 -11 3 -14 6 -6 3 7 2 16 -1 19 -3 4 -6 -2 -5 -13z"/>
<path d="M4196 2945 c4 -8 8 -15 10 -15 2 0 4 7 4 15 0 8 -4 15 -10 15 -5 0
-7 -7 -4 -15z"/>
<path d="M4221 2944 c0 -11 3 -14 6 -6 3 7 2 16 -1 19 -3 4 -6 -2 -5 -13z"/>
<path d="M4216 2893 c10 -40 14 -41 14 -5 0 18 -5 32 -10 32 -6 0 -8 -11 -4
-27z"/>
<path d="M3387 2722 c-51 -52 -66 -84 -17 -37 17 16 30 23 30 15 0 -7 -8 -19
-17 -27 -16 -13 -16 -13 4 -4 12 6 25 20 28 31 4 11 11 18 16 15 5 -4 9 0 10
7 0 7 4 3 9 -10 7 -15 6 -29 -2 -41 -13 -21 -3 -56 13 -45 8 4 7 9 -2 15 -10
6 -11 11 -3 19 9 9 14 8 20 -2 8 -13 9 -17 12 -70 1 -16 7 -28 12 -28 12 0 14
53 3 64 -4 4 -8 13 -8 19 0 7 -11 34 -24 60 l-24 48 -23 -22 c-30 -28 -32 -13
-2 18 40 43 12 23 -35 -25z"/>
<path d="M4231 2724 c0 -11 3 -14 6 -6 3 7 2 16 -1 19 -3 4 -6 -2 -5 -13z"/>
<path d="M4266 2721 c-12 -5 -15 -10 -9 -14 6 -4 16 0 23 8 14 17 13 17 -14 6z"/>
<path d="M4301 2713 c0 -4 4 -17 9 -28 8 -19 9 -19 9 2 1 12 -3 25 -9 28 -5 3
-10 3 -9 -2z"/>
<path d="M4245 2675 c4 -11 12 -39 17 -62 5 -24 12 -43 14 -43 11 0 -9 96 -24
110 -13 13 -14 13 -7 -5z"/>
<path d="M4282 2663 c1 -18 6 -33 10 -33 4 0 8 -15 9 -32 l1 -33 8 27 c6 20 3
38 -11 65 l-20 38 3 -32z"/>
<path d="M3410 2660 c0 -5 5 -10 10 -10 6 0 10 5 10 10 0 6 -4 10 -10 10 -5 0
-10 -4 -10 -10z"/>
<path d="M3270 2603 c-30 -31 -49 -53 -42 -49 20 12 14 -22 -9 -45 -26 -26
-39 -16 -14 11 33 37 0 21 -35 -17 -19 -20 -29 -34 -22 -29 22 13 13 -20 -13
-44 -28 -26 -34 -17 -8 12 31 35 -3 18 -38 -19 -18 -20 -28 -33 -21 -29 20 12
14 -22 -9 -45 -26 -26 -39 -16 -14 11 10 11 15 20 10 20 -13 0 -195 -185 -192
-195 2 -5 -2 -16 -10 -23 -7 -7 -13 -21 -13 -29 0 -14 3 -14 19 3 10 11 17 29
14 42 -2 12 1 22 7 22 5 0 10 -4 10 -10 0 -5 7 -7 16 -3 9 3 20 0 24 -8 5 -7
13 -10 17 -5 4 5 2 11 -4 13 -7 3 -13 12 -14 21 0 11 -2 12 -6 5 -2 -7 -12
-13 -20 -13 -14 0 -14 2 1 19 10 11 27 18 38 16 16 -3 17 -1 8 10 -7 8 -7 15
-1 19 5 3 11 0 14 -6 3 -9 13 -4 31 14 15 16 23 33 20 42 -3 9 -1 16 5 16 16
0 13 -37 -5 -68 l-16 -27 21 24 c12 13 21 34 21 47 0 14 5 22 13 19 14 -5 50
61 42 76 -4 5 -2 9 4 9 5 0 12 -6 14 -12 4 -10 6 -10 6 0 1 7 5 11 10 8 12 -8
54 61 46 74 -3 5 -2 10 4 10 5 0 12 -6 14 -12 4 -10 6 -10 6 -1 1 7 7 10 14 8
11 -5 42 46 42 70 0 16 76 85 94 85 14 0 14 2 1 10 -22 14 -20 15 -80 -47z
m-280 -318 c-7 -13 -17 -22 -22 -19 -4 3 0 16 9 29 23 29 31 23 13 -10z"/>
<path d="M3321 2612 c-6 -12 -18 -22 -25 -22 -14 0 -30 -29 -21 -38 3 -3 5 0
5 7 0 7 6 11 12 9 16 -6 51 38 45 55 -2 7 -8 3 -16 -11z"/>
<path d="M3351 2614 c0 -11 3 -14 6 -6 3 7 2 16 -1 19 -3 4 -6 -2 -5 -13z"/>
<path d="M3520 2602 c0 -20 36 -94 59 -121 29 -33 26 -19 -5 31 -15 23 -32 55
-40 72 -7 17 -13 25 -14 18z"/>
<path d="M3440 2591 c0 -5 7 -14 15 -21 13 -10 15 -9 15 9 0 12 -6 21 -15 21
-8 0 -15 -4 -15 -9z"/>
<path d="M3340 2575 c-8 -9 -8 -15 -2 -15 12 0 26 19 19 26 -2 2 -10 -2 -17
-11z"/>
<path d="M4281 2555 c0 -5 5 -30 13 -55 12 -41 14 -43 21 -20 5 15 4 25 -4 28
-6 2 -9 15 -6 30 4 22 4 23 -3 7 l-9 -20 -5 20 c-3 11 -6 16 -7 10z"/>
<path d="M3520 2538 c0 -15 24 -58 32 -58 8 0 1 17 -22 50 -5 8 -10 12 -10 8z"/>
<path d="M3260 2515 c-7 -9 -8 -15 -2 -15 5 0 12 7 16 15 3 8 4 15 2 15 -2 0
-9 -7 -16 -15z"/>
<path d="M3180 2435 c-7 -9 -8 -15 -2 -15 5 0 12 7 16 15 3 8 4 15 2 15 -2 0
-9 -7 -16 -15z"/>
<path d="M3604 2427 c0 -14 5 -23 10 -20 4 3 5 -8 1 -25 -4 -18 -2 -39 5 -49
9 -15 10 -12 6 15 -7 40 2 42 15 2 6 -16 15 -30 20 -30 10 0 3 22 -29 80 -31
57 -30 56 -28 27z"/>
<path d="M4310 2435 c0 -8 4 -15 10 -15 5 0 7 7 4 15 -4 8 -8 15 -10 15 -2 0
-4 -7 -4 -15z"/>
<path d="M4320 2405 c0 -5 7 -32 14 -60 12 -43 14 -46 15 -19 1 18 -6 45 -14
60 -8 16 -15 25 -15 19z"/>
<path d="M4350 2393 c0 -19 14 -22 35 -7 16 12 17 14 2 14 -9 0 -17 -6 -17
-12 0 -9 -4 -8 -10 2 -6 9 -10 10 -10 3z"/>
<path d="M3100 2355 c-7 -9 -8 -15 -2 -15 5 0 12 7 16 15 3 8 4 15 2 15 -2 0
-9 -7 -16 -15z"/>
<path d="M4379 2335 c0 -25 -2 -27 -8 -10 -13 32 -5 -83 10 -147 16 -67 26
-76 21 -18 -2 22 -8 40 -12 40 -15 0 -17 53 -4 98 10 31 11 49 4 56 -7 7 -10
0 -11 -19z"/>
<path d="M3686 2285 c3 -11 9 -31 12 -45 3 -14 12 -30 21 -36 13 -10 13 -14 2
-28 -9 -11 -10 -16 -2 -16 6 0 11 6 11 13 1 6 10 1 21 -12 14 -17 18 -33 14
-55 -4 -24 -3 -27 4 -11 11 22 14 10 11 -37 -1 -16 3 -28 8 -28 14 0 8 70 -8
100 -7 14 -25 43 -39 65 -14 22 -26 42 -26 45 0 3 -9 19 -19 35 -9 17 -14 21
-10 10z"/>
<path d="M4392 2235 c0 -16 2 -22 5 -12 2 9 2 23 0 30 -3 6 -5 -1 -5 -18z"/>
<path d="M3680 2181 c0 -6 5 -13 10 -16 6 -3 10 1 10 9 0 9 -4 16 -10 16 -5 0
-10 -4 -10 -9z"/>
<path d="M2774 2109 c-24 -27 -26 -30 -6 -20 12 6 22 16 22 21 0 6 8 10 18 10
13 -1 10 -6 -13 -25 -23 -19 -26 -25 -12 -25 9 0 17 4 17 9 0 5 17 8 38 7 32
-2 37 1 38 21 2 20 0 20 -13 8 -20 -20 -30 -19 -38 5 -9 27 -16 25 -51 -11z"/>
<path d="M4401 2100 c0 -8 4 -22 9 -30 12 -18 12 -2 0 25 -6 13 -9 15 -9 5z"/>
<path d="M3710 2093 c0 -15 18 -35 23 -27 3 5 -1 15 -9 22 -8 7 -14 9 -14 5z"/>
<path d="M4462 2060 c7 -10 14 -18 15 -16 6 6 -9 36 -18 36 -5 0 -4 -9 3 -20z"/>
<path d="M2737 2063 c-4 -3 -7 -18 -6 -32 1 -26 1 -25 10 3 9 31 7 41 -4 29z"/>
<path d="M2689 2031 c-21 -22 -23 -29 -12 -39 7 -7 13 -27 13 -44 0 -26 2 -29
15 -18 11 9 12 17 4 31 -5 11 -7 24 -3 31 6 10 16 69 11 67 -1 -1 -14 -13 -28
-28z m21 -11 c0 -5 -5 -10 -11 -10 -5 0 -7 5 -4 10 3 6 8 10 11 10 2 0 4 -4 4
-10z"/>
<path d="M3813 2030 c6 -16 13 -27 15 -25 7 7 -8 55 -17 55 -5 0 -4 -13 2 -30z"/>
<path d="M4441 2055 c1 -19 18 -51 18 -35 0 8 -4 22 -9 30 -5 8 -9 11 -9 5z"/>
<path d="M2767 2043 c-4 -3 -7 -12 -7 -20 0 -11 4 -11 20 -1 11 7 20 16 20 20
0 10 -24 10 -33 1z"/>
<path d="M4421 2040 c0 -24 57 -227 58 -205 0 11 -6 45 -14 75 -17 64 -18 80
-6 80 6 0 12 -15 14 -32 3 -25 4 -21 5 15 2 46 1 47 -15 31 -16 -16 -18 -15
-29 17 -7 19 -13 27 -13 19z"/>
<path d="M3760 2028 c0 -9 5 -20 10 -23 13 -8 13 5 0 25 -8 13 -10 13 -10 -2z"/>
<path d="M3840 2002 c0 -7 8 -27 17 -45 9 -18 16 -35 15 -39 -1 -5 3 -8 8 -8
6 0 10 -7 10 -16 0 -14 -3 -14 -15 -4 -24 20 -17 -5 7 -26 19 -17 21 -17 15
-1 -4 9 -3 17 2 17 13 0 40 -74 36 -96 -10 -51 -13 -107 -4 -93 5 7 9 33 9 57
0 24 4 41 8 38 5 -3 8 -27 8 -54 -1 -42 1 -48 16 -44 20 5 24 18 7 24 -6 2
-12 20 -13 39 -2 20 -25 76 -51 125 -27 49 -55 100 -62 114 -7 14 -13 19 -13
12z"/>
<path d="M2646 1971 c-3 -5 1 -11 9 -15 9 -3 15 0 15 9 0 16 -16 20 -24 6z"/>
<path d="M2600 1945 c-18 -19 -20 -24 -7 -19 9 3 17 10 17 15 0 17 20 9 21 -8
0 -10 3 -13 5 -6 3 7 1 19 -3 28 -8 13 -13 12 -33 -10z"/>
<path d="M2534 1878 c-19 -22 -19 -22 0 -8 17 13 19 13 14 0 -2 -8 -15 -17
-29 -21 l-24 -7 25 -1 c14 0 36 9 50 20 22 17 23 19 5 17 -12 -2 -19 2 -17 10
3 17 -2 15 -24 -10z"/>
<path d="M2615 1890 c-3 -5 1 -10 9 -10 9 0 16 5 16 10 0 6 -4 10 -9 10 -6 0
-13 -4 -16 -10z"/>
<path d="M3846 1855 c-6 -17 5 -26 21 -17 8 5 7 11 -2 19 -10 10 -14 9 -19 -2z"/>
<path d="M4490 1810 c0 -16 4 -30 9 -30 4 0 8 13 7 30 -1 39 -16 39 -16 0z"/>
<path d="M4520 1826 c0 -8 5 -18 10 -21 6 -3 10 3 10 14 0 12 -4 21 -10 21 -5
0 -10 -6 -10 -14z"/>
<path d="M2446 1795 c-16 -14 -27 -27 -24 -30 2 -3 17 9 33 25 35 37 30 39 -9
5z"/>
<path d="M2465 1780 c-16 -18 -16 -20 -2 -20 10 0 17 7 17 16 0 9 5 12 12 8 7
-4 8 -3 4 4 -9 16 -10 15 -31 -8z"/>
<path d="M4522 1765 c0 -16 2 -22 5 -12 2 9 2 23 0 30 -3 6 -5 -1 -5 -18z"/>
<path d="M4550 1751 c0 -11 -5 -23 -10 -26 -8 -5 -8 -11 0 -20 7 -8 7 -20 1
-36 -8 -20 -10 -21 -10 -5 -1 30 -23 96 -32 96 -5 0 -4 -11 1 -25 5 -14 12
-36 14 -48 9 -46 36 -140 42 -146 6 -6 -3 56 -13 93 -3 10 -1 16 3 13 5 -3 10
24 11 59 1 35 0 64 -2 64 -3 0 -5 -9 -5 -19z"/>
<path d="M2386 1739 c-11 -11 -15 -19 -9 -19 12 0 38 28 32 34 -2 2 -13 -5
-23 -15z"/>
<path d="M2350 1691 c1 -39 37 -194 43 -185 3 6 2 26 -3 45 -13 43 -12 58 0
39 6 -9 10 -10 10 -3 0 6 -6 18 -13 25 -21 20 -30 78 -12 78 25 0 24 15 -1 16
-16 1 -24 -3 -24 -15z"/>
<path d="M4003 1680 c0 -23 3 -28 9 -16 5 9 5 23 0 32 -6 12 -9 7 -9 -16z"/>
<path d="M2381 1664 c0 -11 3 -14 6 -6 3 7 2 16 -1 19 -3 4 -6 -2 -5 -13z"/>
<path d="M4020 1658 c0 -4 13 -30 30 -58 16 -27 27 -50 24 -50 -4 0 -2 -6 4
-13 6 -7 9 -24 6 -38 -4 -21 -3 -21 5 -4 8 19 9 19 16 2 5 -12 1 -23 -11 -32
-11 -8 -14 -15 -7 -15 6 0 15 5 19 12 5 7 11 5 21 -7 25 -35 13 -3 -32 84 -44
85 -74 133 -75 119z"/>
<path d="M4000 1620 c0 -5 5 -10 10 -10 6 0 10 5 10 10 0 6 -4 10 -10 10 -5 0
-10 -4 -10 -10z"/>
<path d="M4012 1601 c-11 -7 -10 -9 3 -14 9 -4 22 -21 30 -39 8 -18 14 -26 15
-17 0 13 -28 79 -33 79 -1 0 -8 -4 -15 -9z"/>
<path d="M4571 1564 c0 -11 3 -14 6 -6 3 7 2 16 -1 19 -3 4 -6 -2 -5 -13z"/>
<path d="M4000 1564 c0 -3 7 -12 15 -20 16 -17 18 -14 9 10 -6 15 -24 23 -24
10z"/>
<path d="M4580 1515 c0 -3 6 -14 13 -25 10 -17 9 -22 -2 -29 -7 -5 -11 -15 -9
-22 8 -25 29 29 22 56 -5 21 -24 37 -24 20z"/>
<path d="M4616 1505 c4 -8 8 -15 10 -15 2 0 4 7 4 15 0 8 -4 15 -10 15 -5 0
-7 -7 -4 -15z"/>
<path d="M2390 1476 c0 -8 4 -17 9 -20 5 -4 7 3 4 14 -6 23 -13 26 -13 6z"/>
<path d="M4620 1461 c0 -5 -3 -18 -6 -28 -4 -13 -3 -14 3 -5 6 8 10 -9 9 -50
l0 -63 -11 47 c-5 25 -13 50 -17 54 -12 11 -10 -3 15 -101 l23 -90 515 0 514
0 -515 5 -515 5 530 5 530 5 -530 5 -530 5 485 5 485 5 -485 5 -485 5 2 98 c2
58 -1 97 -7 97 -6 0 -10 -4 -10 -9z"/>
<path d="M2404 1420 c4 -14 11 -46 17 -72 12 -56 24 -65 14 -12 -4 24 -2 39 5
44 13 8 3 60 -11 60 -13 0 -11 -14 3 -28 9 -9 9 -15 0 -24 -9 -9 -12 -8 -12 8
0 10 -5 26 -11 34 -8 12 -9 10 -5 -10z"/>
<path d="M2467 1403 c-4 -3 -7 -15 -7 -25 0 -10 -6 -18 -12 -18 -9 0 -10 -3
-2 -8 6 -4 14 -14 17 -22 5 -10 6 -9 5 5 -1 11 2 30 6 43 8 24 4 37 -7 25z"/>
<path d="M4158 1397 c6 -7 9 -23 6 -35 -6 -22 15 -82 29 -82 5 0 6 10 2 23 -6
21 -6 21 15 -3 15 -18 12 -6 -12 42 -18 37 -37 68 -42 68 -5 0 -4 -6 2 -13z
m32 -70 c0 -5 -4 -5 -10 -2 -5 3 -10 14 -10 23 0 15 2 15 10 2 5 -8 10 -19 10
-23z"/>
<path d="M1917 1305 l-99 -95 152 0 c150 0 151 0 145 21 -11 33 -86 169 -93
169 -4 -1 -51 -43 -105 -95z"/>
<path d="M5814 1328 c-22 -43 -21 -43 -39 -28 -10 8 -15 9 -15 1 0 -6 5 -11
10 -11 6 0 10 -4 10 -10 0 -5 -7 -10 -16 -10 -8 0 -12 -5 -8 -11 9 -15 60 36
73 72 13 39 5 37 -15 -3z"/>
<path d="M5780 1320 c0 -5 5 -10 10 -10 6 0 10 5 10 10 0 6 -4 10 -10 10 -5 0
-10 -4 -10 -10z"/>
<path d="M2470 1294 c0 -16 -2 -17 -10 -4 -6 9 -10 10 -10 3 0 -19 20 -26 26
-8 4 9 4 19 0 22 -3 4 -6 -2 -6 -13z"/>
<path d="M2424 1282 c3 -5 0 -13 -6 -15 -8 -3 -6 -6 5 -6 19 -1 23 14 5 25 -6
4 -8 3 -4 -4z"/>
<path d="M5635 1270 c-3 -5 1 -10 9 -10 9 0 16 5 16 10 0 6 -4 10 -9 10 -6 0
-13 -4 -16 -10z"/>
<path d="M5680 1270 c0 -4 10 -12 23 -17 l22 -11 -25 -10 c-14 -6 -18 -11 -10
-11 8 0 25 5 38 12 22 13 22 13 -13 29 -19 8 -35 12 -35 8z"/>
<path d="M5718 1273 c7 -3 16 -2 19 1 4 3 -2 6 -13 5 -11 0 -14 -3 -6 -6z"/>
<path d="M3360 1260 c487 -3 874 -8 860 -11 -25 -6 -25 -6 3 -8 19 -1 27 3 25
12 -4 9 -190 12 -889 12 l-884 0 885 -5z"/>
<path d="M2386 1234 c-10 -25 -7 -29 7 -11 11 16 79 17 902 20 l890 2 -896 3
c-810 2 -897 0 -903 -14z"/>
<path d="M2411 1226 c12 -10 59 -15 59 -6 0 5 -14 10 -32 10 -17 0 -29 -2 -27
-4z"/>
<path d="M2922 1223 c247 -2 649 -2 895 0 247 1 45 2 -447 2 -492 0 -694 -1
-448 -2z"/>
</g>
</svg>
